<?xml version="1.0" encoding="utf-8"?>
<!-- Generator: Adobe Illustrator 26.0.3, SVG Export Plug-In . SVG Version: 6.00 Build 0)  -->
<svg version="1.1" id="Ebene_1" xmlns="http://www.w3.org/2000/svg" xmlns:xlink="http://www.w3.org/1999/xlink" x="0px" y="0px"
	 width="1000px" height="1000px" viewBox="0 0 1000 1000" style="enable-background:new 0 0 1000 1000;" xml:space="preserve">
<g>
	<path d="M361.7,539.2c5.2,115.7,105.7,171.8,218.7,123C580.4,662.2,431.4,698.9,361.7,539.2z"/>
	<path d="M616.5,465.8l-16.2-1.3c-5.6-0.4-12.6-4.6-15.6-9.4l-8.8-13.7c-3-4.7-5.8-4-6.3,1.6l-1.3,16.2c-0.4,5.6-4.6,12.6-9.4,15.6
		l-13.7,8.7c-4.7,3-4,5.8,1.6,6.3l16.2,1.3c5.6,0.4,12.6,4.6,15.6,9.4l8.7,13.7c3,4.7,5.8,4,6.3-1.6l1.3-16.2
		c0.4-5.6,4.6-12.6,9.4-15.6l13.7-8.7C622.8,469,622.1,466.2,616.5,465.8z"/>
	<path d="M878.4,720.2l-304-526.6c-15.5-26.9-43.3-43-74.4-43c-31.1,0-58.9,16.1-74.4,43l-304,526.6
		c-18.9,32.8-14.8,72.2,10.5,100.3c16.9,18.8,39.7,28.8,63.4,28.8c11.8,0,23.7-2.5,35.2-7.5l243-107.2c16.8-7.4,36-7.4,52.7,0
		l243,107.2c34.6,15.3,73.3,6.9,98.6-21.2C893.2,792.4,897.3,753,878.4,720.2z M196.6,798.5c-14.6,0-26.4-11.8-26.4-26.4
		c0-14.6,11.8-26.4,26.4-26.4c14.6,0,26.4,11.8,26.4,26.4C223,786.7,211.2,798.5,196.6,798.5z M663.6,536.5c10.5-20,17-32.3,17-32.3
		c2.6-4.9,8.7-6.8,13.6-4.2c5.1,2.7,6.9,9.1,4,14.1c0,0-15.7,26.4-38.3,64.4c2.5-11.5,3.9-23.4,3.9-35.6
		C663.7,540.7,663.6,538.6,663.6,536.5z M608.6,372.6c0.8-8,7.9-13.8,15.9-13c9.4,0.8,15.6,11,12.1,19.7l-19.1,49.3
		c-4.2-4.3-8.6-8.4-13.2-12.2L608.6,372.6z M500,201.5c14.6,0,26.4,11.8,26.4,26.4c0,14.6-11.8,26.4-26.4,26.4s-26.4-11.8-26.4-26.4
		C473.6,213.3,485.4,201.5,500,201.5z M510.6,294.3l-3.9,84.3c-2.4-0.1-4.9-0.2-7.4-0.2c-2.5,0-4.9,0.1-7.4,0.2l-3.9-84.3
		c-0.3-6.2,4.5-11.5,10.8-11.8C505.4,282.2,510.9,287.7,510.6,294.3z M370.3,360.5c8.8-3.6,18.9,2.7,19.7,12.1l4.3,43.7
		c-4.6,3.8-9,7.9-13.2,12.2L362,379.3C359.1,371.8,362.8,363.4,370.3,360.5z M303.9,500.2c4.9-3,11.4-1.1,14.1,4l17,32.3
		c-0.1,2.1-0.1,4.3-0.1,6.4c0,12.2,1.3,24.1,3.9,35.6L300.4,514C297.6,509.2,299.1,503,303.9,500.2z M351.1,768.3l-60.8-32.8
		c-4.9-2.6-6.7-8.8-4.1-13.7c2.8-5.2,9.5-6.9,14.4-3.7l66.9,43.8L351.1,768.3z M397.1,750.7L281.8,633c-3.9-4-3.8-10.4,0.2-14.3
		c4.1-4.1,10.9-3.8,14.7,0.6c0,0,55,64,109.9,127.8L397.1,750.7z M433.1,737l-41.7-70.1c6.4,5.5,13.1,10.6,20.3,15.1l27.7,52.6
		L433.1,737z M465,724.8l-2,0.8c-2.3-7.9-4.7-16-7.2-24.2c3,0.8,5.9,1.5,9,2.2c1.6,6.6,3.1,13,4.6,19.4
		C467.9,723.6,466.5,724.2,465,724.8z M502.7,717.6c-1,0-2-0.1-3.1-0.1c-1,0-2,0-3.1,0.1l-0.2-10.4c1,0,1.9,0,2.9,0
		c1.2,0,2.4,0,3.7,0L502.7,717.6z M499.7,693.3c-83.3,0-150.9-67.5-150.9-150.9c0-83.3,67.5-150.9,150.9-150.9
		c83.3,0,150.9,67.5,150.9,150.9C650.5,625.8,583,693.3,499.7,693.3z M535.7,725.4l-1.3-0.5c-1.7-0.7-3.4-1.4-5.1-2.1
		c1.5-6.3,3-12.7,4.6-19.2c3-0.6,6-1.4,9-2.2C540.4,709.5,538,717.5,535.7,725.4z M559.3,734.4c8.9-16.8,18.2-34.6,27.6-52.4
		c7.2-4.5,14-9.6,20.3-15.1c-14,23.6-28.3,47.5-41.6,69.9L559.3,734.4z M708.2,735.5c0,0-28.9,15.6-60.5,32.6l-16.5-6.3
		c34.6-22.6,66.7-43.6,66.7-43.6c4.7-3.1,10.9-1.7,14,2.9C715.1,726,713.4,732.7,708.2,735.5z M716.8,633c0,0-57.2,58.4-115.1,117.6
		l-9.4-3.6C647.1,683.2,702,619.4,702,619.4c3.6-4.2,10-4.7,14.2-1.1C720.6,622,720.9,628.9,716.8,633z M803.4,798.5
		c-14.6,0-26.4-11.8-26.4-26.4c0-14.6,11.8-26.4,26.4-26.4c14.6,0,26.4,11.8,26.4,26.4C829.8,786.7,817.9,798.5,803.4,798.5z"/>
</g>
</svg>
