M48
; DRILL file {KiCad 6.0.11+dfsg-1~bpo11+1} date Sa 21 Okt 2023 13:11:06 CEST
; FORMAT={-:-/ absolute / metric / decimal}
; #@! TF.CreationDate,2023-10-21T13:11:06+02:00
; #@! TF.GenerationSoftware,Kicad,Pcbnew,6.0.11+dfsg-1~bpo11+1
; #@! TF.FileFunction,Plated,1,2,PTH
FMAT,2
METRIC
; #@! TA.AperFunction,Plated,PTH,ViaDrill
T1C0.300
; #@! TA.AperFunction,Plated,PTH,ComponentDrill
T2C0.600
; #@! TA.AperFunction,Plated,PTH,ComponentDrill
T3C1.000
; #@! TA.AperFunction,Plated,PTH,ComponentDrill
T4C1.200
; #@! TA.AperFunction,Plated,PTH,ComponentDrill
T5C1.300
; #@! TA.AperFunction,Plated,PTH,ComponentDrill
T6C2.000
%
G90
G05
T1
X1.2Y88.708
X1.2Y83.628
X1.2Y78.548
X1.2Y73.468
X1.2Y68.388
X1.2Y63.308
X1.2Y58.228
X1.2Y53.148
X1.2Y48.068
X1.2Y42.988
X1.2Y37.908
X1.2Y32.828
X1.2Y27.748
X1.2Y22.668
X1.2Y17.588
X1.2Y12.508
X1.2Y9.333
X8.693Y9.079
X8.947Y90.867
X10.126Y9.496
X10.979Y9.496
X11.36Y98.868
X11.36Y1.84
X13.838Y52.578
X13.86Y33.118
X13.9Y80.326
X13.9Y77.024
X13.9Y73.468
X13.9Y66.61
X13.9Y63.181
X13.9Y56.069
X13.9Y49.084
X13.9Y27.494
X13.917Y45.418
X13.936Y69.948
X13.936Y42.008
X13.936Y38.452
X14.154Y20.382
X14.154Y13.016
X14.662Y60.514
X15.932Y30.288
X15.932Y16.826
X16.186Y23.938
X16.44Y98.868
X16.44Y84.009
X16.44Y36.638
X16.44Y1.84
X17.075Y87.438
X17.202Y55.18
X17.456Y51.624
X17.456Y48.068
X17.456Y44.512
X17.456Y40.956
X17.71Y61.784
X17.71Y59.244
X17.71Y36.003
X17.71Y29.907
X17.71Y22.541
X17.837Y15.302
X17.964Y8.19
X17.964Y7.428
X18.853Y75.881
X18.853Y72.325
X18.853Y68.896
X18.853Y65.467
X18.98Y85.406
X18.98Y82.358
X18.98Y79.437
X18.98Y14.286
X18.98Y8.698
X19.107Y57.847
X19.107Y54.291
X19.107Y50.989
X19.107Y47.433
X19.107Y43.75
X19.107Y40.194
X19.361Y29.907
X19.361Y22.922
X19.361Y15.556
X20.123Y80.072
X20.25Y55.688
X20.25Y52.132
X20.25Y48.83
X20.25Y45.274
X20.25Y41.718
X20.25Y37.908
X20.25Y7.936
X20.377Y76.008
X20.377Y72.325
X20.377Y69.531
X20.504Y65.848
X20.504Y62.292
X21.139Y84.136
X21.226Y36.928
X21.393Y29.653
X21.52Y98.868
X21.52Y61.276
X21.52Y59.498
X21.52Y22.541
X21.52Y14.794
X21.52Y1.84
X22.79Y83.12
X22.79Y55.18
X22.79Y51.624
X22.79Y44.512
X23.044Y48.068
X23.044Y40.956
X23.298Y29.78
X23.552Y37.4
X24.06Y33.59
X24.314Y26.986
X24.314Y20.128
X24.314Y15.556
X24.314Y12.254
X25.076Y80.072
X25.076Y62.546
X25.076Y59.498
X25.076Y51.878
X25.076Y49.846
X25.076Y42.734
X25.076Y39.178
X25.33Y69.404
X25.33Y65.848
X25.33Y44.766
X25.33Y8.444
X25.584Y54.926
X26.092Y72.452
X26.6Y98.868
X26.6Y76.516
X26.6Y37.4
X26.6Y32.32
X26.6Y27.24
X26.6Y19.62
X26.6Y1.84
X26.854Y56.958
X26.854Y48.83
X27.235Y86.168
X27.616Y52.64
X28.378Y84.009
X28.378Y12.0
X28.378Y6.92
X28.378Y1.84
X28.632Y77.024
X28.632Y74.484
X28.632Y71.436
X28.632Y61.276
X28.632Y16.572
X28.886Y79.31
X29.14Y42.48
X29.648Y54.926
X29.648Y22.414
X29.902Y82.993
X29.902Y60.006
X30.156Y73.214
X30.664Y76.77
X30.664Y63.562
X30.664Y58.736
X31.172Y79.31
X31.172Y52.64
X31.299Y70.42
X31.426Y49.338
X31.68Y98.868
X31.68Y37.4
X31.68Y32.32
X31.68Y27.24
X31.934Y62.292
X31.934Y46.29
X32.95Y71.309
X32.95Y58.736
X33.204Y54.418
X33.204Y41.972
X33.585Y84.009
X33.585Y79.31
X33.712Y59.752
X34.093Y66.356
X34.124Y67.657
X34.189Y68.927
X34.22Y47.56
X34.347Y72.706
X34.347Y55.307
X34.474Y70.42
X34.728Y58.736
X34.982Y44.766
X34.982Y29.526
X35.236Y63.562
X35.49Y49.846
X36.506Y68.927
X36.506Y67.657
X36.506Y61.53
X36.609Y65.999
X36.633Y62.8
X36.76Y98.868
X36.76Y86.93
X36.76Y60.514
X36.76Y55.307
X36.76Y48.576
X36.76Y42.48
X36.76Y37.4
X36.76Y32.32
X37.014Y71.309
X37.014Y45.782
X37.395Y84.009
X37.776Y50.862
X37.903Y73.849
X38.411Y77.024
X38.665Y78.675
X38.792Y72.452
X38.792Y44.766
X38.792Y31.304
X38.796Y86.549
X39.046Y46.036
X39.173Y92.772
X39.554Y89.343
X39.681Y68.388
X39.808Y87.184
X39.935Y59.117
X39.935Y56.704
X39.935Y54.291
X40.443Y90.994
X40.57Y79.818
X40.57Y70.801
X40.57Y66.61
X40.715Y63.453
X40.824Y45.528
X41.459Y65.848
X41.586Y79.818
X41.586Y39.94
X41.586Y35.368
X41.84Y33.082
X42.094Y46.925
X42.348Y59.117
X42.348Y54.291
X42.602Y74.611
X42.602Y67.626
X42.602Y65.594
X42.983Y71.309
X43.11Y50.862
X43.11Y48.322
X43.11Y31.558
X43.364Y45.02
X43.427Y66.419
X44.126Y48.83
X44.189Y77.722
X44.189Y75.817
X44.189Y74.039
X44.624Y61.901
X44.634Y64.197
X44.634Y46.163
X44.761Y59.117
X44.761Y56.704
X44.761Y54.291
X44.888Y50.354
X45.142Y47.56
X45.523Y76.77
X45.523Y71.436
X45.523Y68.642
X45.523Y44.258
X45.65Y78.548
X45.65Y64.578
X46.158Y60.514
X46.285Y53.275
X46.285Y45.274
X46.485Y43.646
X46.666Y65.848
X46.92Y64.197
X47.428Y55.515
X47.555Y52.894
X47.936Y58.736
X47.936Y44.766
X47.936Y40.448
X48.19Y64.959
X48.19Y46.798
X48.19Y35.368
X48.19Y31.558
X48.571Y67.118
X48.698Y53.148
X48.825Y60.514
X49.079Y76.516
X49.206Y57.974
X49.333Y61.53
X49.714Y75.246
X49.714Y50.862
X49.968Y55.434
X50.222Y57.212
X50.222Y46.29
X50.349Y59.244
X50.73Y75.246
X50.984Y88.708
X50.984Y65.34
X50.984Y63.308
X51.111Y56.196
X51.111Y54.926
X51.238Y73.722
X51.492Y69.658
X51.746Y79.31
X51.881Y90.859
X52.0Y32.32
X52.0Y30.542
X52.127Y55.561
X52.127Y54.291
X52.127Y53.148
X52.508Y76.77
X52.508Y43.75
X52.762Y87.184
X53.27Y90.994
X53.524Y80.326
X53.778Y40.575
X54.286Y43.75
X54.54Y84.136
X54.54Y83.247
X54.921Y79.31
X55.048Y76.516
X55.302Y34.225
X55.556Y85.914
X55.556Y50.608
X55.556Y39.686
X55.556Y28.764
X55.81Y46.798
X55.937Y64.451
X56.572Y87.565
X56.699Y43.369
X57.08Y63.308
X57.08Y60.514
X57.08Y32.32
X57.08Y27.24
X57.842Y61.53
X57.842Y50.354
X57.842Y46.798
X57.842Y39.432
X57.842Y35.876
X58.096Y90.994
X58.096Y41.972
X58.604Y60.514
X58.604Y29.018
X58.731Y26.224
X58.985Y34.098
X59.366Y82.993
X59.493Y75.5
X59.493Y69.912
X59.62Y90.994
X59.747Y78.929
X59.747Y64.451
X60.128Y86.168
X60.128Y84.009
X60.16Y85.184
X60.255Y55.434
X60.636Y40.575
X60.89Y45.401
X61.144Y79.183
X61.271Y83.12
X61.906Y66.61
X62.16Y98.868
X62.16Y77.024
X62.16Y72.579
X62.16Y69.404
X62.541Y83.12
X63.43Y85.152
X63.43Y84.263
X63.557Y86.041
X64.319Y64.578
X64.446Y76.262
X64.573Y63.435
X65.208Y78.04
X65.208Y72.452
X65.97Y87.565
X65.97Y83.374
X66.097Y81.342
X66.732Y65.467
X66.986Y76.643
X67.113Y75.5
X67.24Y98.868
X67.24Y26.351
X67.24Y24.446
X67.367Y53.402
X67.367Y37.527
X67.367Y27.494
X67.494Y57.466
X67.494Y45.401
X67.607Y61.77
X67.621Y50.1
X67.748Y77.786
X67.748Y43.77
X67.748Y41.845
X67.748Y31.431
X67.87Y69.78
X67.875Y51.77
X67.93Y17.77
X68.002Y35.749
X68.002Y25.77
X68.496Y61.77
X68.51Y78.548
X68.51Y77.786
X68.51Y77.024
X68.51Y62.546
X68.51Y61.022
X68.53Y44.639
X68.53Y43.77
X68.53Y43.008
X68.618Y51.77
X68.637Y70.547
X68.637Y69.785
X68.637Y69.023
X68.637Y52.513
X68.637Y50.989
X68.709Y18.549
X68.709Y17.787
X68.709Y17.025
X68.764Y26.605
X68.764Y25.77
X68.764Y24.954
X68.891Y36.511
X68.891Y34.987
X68.912Y35.77
X69.258Y61.77
X69.272Y77.77
X69.384Y69.77
X69.418Y51.77
X69.419Y43.77
X69.453Y25.77
X69.454Y17.77
X69.653Y35.77
X69.78Y85.914
X70.018Y77.77
X70.02Y61.77
X70.146Y69.77
X70.161Y25.77
X70.18Y51.77
X70.181Y43.77
X70.216Y17.77
X70.309Y35.77
X72.32Y98.868
X74.415Y86.739
X75.241Y85.152
X75.368Y87.692
X77.654Y87.946
X79.305Y85.152
X83.623Y85.152
X86.671Y86.93
X86.671Y84.898
X86.798Y98.741
X87.052Y92.264
T3
X45.142Y86.647
X45.142Y81.647
X48.459Y48.601
X48.698Y98.106
X50.999Y48.601
X51.873Y61.276
X53.539Y48.601
T4
X4.716Y56.938
X4.716Y53.438
X4.716Y49.938
X4.716Y46.438
X4.716Y42.938
X4.716Y39.438
X4.756Y82.14
X4.756Y78.64
X4.756Y75.14
X4.756Y71.64
X4.756Y68.14
X4.756Y64.64
X4.756Y31.786
X4.756Y28.286
X4.756Y24.786
X4.756Y21.286
X4.756Y17.786
X4.756Y14.286
X9.716Y56.938
X9.716Y53.438
X9.716Y49.938
X9.716Y46.438
X9.716Y42.938
X9.716Y39.438
X9.756Y82.14
X9.756Y78.64
X9.756Y75.14
X9.756Y71.64
X9.756Y68.14
X9.756Y64.64
X9.756Y31.786
X9.756Y28.286
X9.756Y24.786
X9.756Y21.286
X9.756Y17.786
X9.756Y14.286
X15.818Y95.5
X15.818Y90.5
X19.318Y95.5
X19.318Y90.5
X22.818Y95.5
X22.818Y90.5
X26.318Y95.5
X26.318Y90.5
X29.818Y95.5
X29.818Y90.5
X33.318Y95.5
X33.318Y90.5
X67.25Y95.5
X67.25Y90.5
X70.75Y95.5
X70.75Y90.5
X74.25Y95.5
X74.25Y90.5
X77.75Y95.5
X77.75Y90.5
X81.25Y95.5
X81.25Y90.5
X84.75Y95.5
X84.75Y90.5
X90.14Y82.3
X90.14Y78.8
X90.14Y75.3
X90.14Y71.8
X90.14Y68.3
X90.14Y64.8
X90.14Y56.9
X90.14Y53.4
X90.14Y49.9
X90.14Y46.4
X90.14Y42.9
X90.14Y39.4
X90.14Y31.5
X90.14Y28.0
X90.14Y24.5
X90.14Y21.0
X90.14Y17.5
X90.14Y14.0
X95.14Y82.3
X95.14Y78.8
X95.14Y75.3
X95.14Y71.8
X95.14Y68.3
X95.14Y64.8
X95.14Y56.9
X95.14Y53.4
X95.14Y49.9
X95.14Y46.4
X95.14Y42.9
X95.14Y39.4
X95.14Y31.5
X95.14Y28.0
X95.14Y24.5
X95.14Y21.0
X95.14Y17.5
X95.14Y14.0
T5
X63.61Y6.0
X86.11Y6.0
T6
X44.634Y20.59
X44.634Y10.59
T2
X51.49Y96.595G85X51.49Y97.195
G05
X51.49Y92.165G85X51.49Y93.265
G05
X60.13Y96.595G85X60.13Y97.195
G05
X60.13Y92.165G85X60.13Y93.265
G05
T0
M30
