%TF.GenerationSoftware,KiCad,Pcbnew,6.0.11+dfsg-1*%
%TF.CreationDate,2024-10-04T13:58:06+02:00*%
%TF.ProjectId,IO_16_8_1,494f5f31-365f-4385-9f31-2e6b69636164,1.1.0*%
%TF.SameCoordinates,PX47868c0PY848f8c0*%
%TF.FileFunction,Drillmap*%
%TF.FilePolarity,Positive*%
%FSLAX45Y45*%
G04 Gerber Fmt 4.5, Leading zero omitted, Abs format (unit mm)*
G04 Created by KiCad (PCBNEW 6.0.11+dfsg-1) date 2024-10-04 13:58:06*
%MOMM*%
%LPD*%
G01*
G04 APERTURE LIST*
%ADD10C,0.100000*%
%ADD11C,0.200000*%
%ADD12C,0.065000*%
%ADD13C,0.270000*%
%ADD14C,0.550000*%
G04 APERTURE END LIST*
D10*
X0Y10000000D02*
X10000000Y10000000D01*
X10000000Y10000000D02*
X10000000Y0D01*
X10000000Y0D02*
X0Y0D01*
X0Y0D02*
X0Y10000000D01*
D11*
D12*
X5259500Y9354000D02*
X5324500Y9289000D01*
X5324500Y9354000D02*
X5259500Y9289000D01*
X5837500Y9354000D02*
X5902500Y9289000D01*
X5902500Y9354000D02*
X5837500Y9289000D01*
D13*
X7621000Y600000D02*
G75*
G03*
X7621000Y600000I-135000J0D01*
G01*
D14*
X500000Y9778600D02*
X500000Y9228600D01*
X225000Y9503600D02*
X775000Y9503600D01*
X500000Y778600D02*
X500000Y228600D01*
X225000Y503600D02*
X775000Y503600D01*
X9500000Y9775000D02*
X9500000Y9225000D01*
X9225000Y9500000D02*
X9775000Y9500000D01*
X9500000Y775000D02*
X9500000Y225000D01*
X9225000Y500000D02*
X9775000Y500000D01*
D11*
X252619Y-315476D02*
X252619Y-115476D01*
X300238Y-115476D01*
X328810Y-125000D01*
X347857Y-144048D01*
X357381Y-163095D01*
X366905Y-201190D01*
X366905Y-229762D01*
X357381Y-267857D01*
X347857Y-286905D01*
X328810Y-305952D01*
X300238Y-315476D01*
X252619Y-315476D01*
X452619Y-315476D02*
X452619Y-182143D01*
X452619Y-220238D02*
X462143Y-201190D01*
X471667Y-191667D01*
X490714Y-182143D01*
X509762Y-182143D01*
X576429Y-315476D02*
X576429Y-182143D01*
X576429Y-115476D02*
X566905Y-125000D01*
X576429Y-134524D01*
X585952Y-125000D01*
X576429Y-115476D01*
X576429Y-134524D01*
X700238Y-315476D02*
X681190Y-305952D01*
X671667Y-286905D01*
X671667Y-115476D01*
X805000Y-315476D02*
X785952Y-305952D01*
X776428Y-286905D01*
X776428Y-115476D01*
X1033571Y-315476D02*
X1033571Y-115476D01*
X1100238Y-258333D01*
X1166905Y-115476D01*
X1166905Y-315476D01*
X1347857Y-315476D02*
X1347857Y-210714D01*
X1338333Y-191667D01*
X1319286Y-182143D01*
X1281190Y-182143D01*
X1262143Y-191667D01*
X1347857Y-305952D02*
X1328810Y-315476D01*
X1281190Y-315476D01*
X1262143Y-305952D01*
X1252619Y-286905D01*
X1252619Y-267857D01*
X1262143Y-248809D01*
X1281190Y-239286D01*
X1328810Y-239286D01*
X1347857Y-229762D01*
X1443095Y-182143D02*
X1443095Y-382143D01*
X1443095Y-191667D02*
X1462143Y-182143D01*
X1500238Y-182143D01*
X1519286Y-191667D01*
X1528809Y-201190D01*
X1538333Y-220238D01*
X1538333Y-277381D01*
X1528809Y-296429D01*
X1519286Y-305952D01*
X1500238Y-315476D01*
X1462143Y-315476D01*
X1443095Y-305952D01*
X1624048Y-296429D02*
X1633571Y-305952D01*
X1624048Y-315476D01*
X1614524Y-305952D01*
X1624048Y-296429D01*
X1624048Y-315476D01*
X1624048Y-191667D02*
X1633571Y-201190D01*
X1624048Y-210714D01*
X1614524Y-201190D01*
X1624048Y-191667D01*
X1624048Y-210714D01*
D12*
X-70000Y-612500D02*
X-5000Y-677500D01*
X-5000Y-612500D02*
X-70000Y-677500D01*
D11*
X290714Y-535476D02*
X309762Y-535476D01*
X328810Y-545000D01*
X338333Y-554524D01*
X347857Y-573571D01*
X357381Y-611667D01*
X357381Y-659286D01*
X347857Y-697381D01*
X338333Y-716428D01*
X328810Y-725952D01*
X309762Y-735476D01*
X290714Y-735476D01*
X271667Y-725952D01*
X262143Y-716428D01*
X252619Y-697381D01*
X243095Y-659286D01*
X243095Y-611667D01*
X252619Y-573571D01*
X262143Y-554524D01*
X271667Y-545000D01*
X290714Y-535476D01*
X443095Y-716428D02*
X452619Y-725952D01*
X443095Y-735476D01*
X433571Y-725952D01*
X443095Y-716428D01*
X443095Y-735476D01*
X624048Y-535476D02*
X585952Y-535476D01*
X566905Y-545000D01*
X557381Y-554524D01*
X538333Y-583095D01*
X528810Y-621190D01*
X528810Y-697381D01*
X538333Y-716428D01*
X547857Y-725952D01*
X566905Y-735476D01*
X605000Y-735476D01*
X624048Y-725952D01*
X633571Y-716428D01*
X643095Y-697381D01*
X643095Y-649762D01*
X633571Y-630714D01*
X624048Y-621190D01*
X605000Y-611667D01*
X566905Y-611667D01*
X547857Y-621190D01*
X538333Y-630714D01*
X528810Y-649762D01*
X824048Y-535476D02*
X728809Y-535476D01*
X719286Y-630714D01*
X728809Y-621190D01*
X747857Y-611667D01*
X795476Y-611667D01*
X814524Y-621190D01*
X824048Y-630714D01*
X833571Y-649762D01*
X833571Y-697381D01*
X824048Y-716428D01*
X814524Y-725952D01*
X795476Y-735476D01*
X747857Y-735476D01*
X728809Y-725952D01*
X719286Y-716428D01*
X957381Y-535476D02*
X976428Y-535476D01*
X995476Y-545000D01*
X1005000Y-554524D01*
X1014524Y-573571D01*
X1024048Y-611667D01*
X1024048Y-659286D01*
X1014524Y-697381D01*
X1005000Y-716428D01*
X995476Y-725952D01*
X976428Y-735476D01*
X957381Y-735476D01*
X938333Y-725952D01*
X928809Y-716428D01*
X919286Y-697381D01*
X909762Y-659286D01*
X909762Y-611667D01*
X919286Y-573571D01*
X928809Y-554524D01*
X938333Y-545000D01*
X957381Y-535476D01*
X1109762Y-735476D02*
X1109762Y-602143D01*
X1109762Y-621190D02*
X1119286Y-611667D01*
X1138333Y-602143D01*
X1166905Y-602143D01*
X1185952Y-611667D01*
X1195476Y-630714D01*
X1195476Y-735476D01*
X1195476Y-630714D02*
X1205000Y-611667D01*
X1224048Y-602143D01*
X1252619Y-602143D01*
X1271667Y-611667D01*
X1281190Y-630714D01*
X1281190Y-735476D01*
X1376429Y-735476D02*
X1376429Y-602143D01*
X1376429Y-621190D02*
X1385952Y-611667D01*
X1405000Y-602143D01*
X1433571Y-602143D01*
X1452619Y-611667D01*
X1462143Y-630714D01*
X1462143Y-735476D01*
X1462143Y-630714D02*
X1471667Y-611667D01*
X1490714Y-602143D01*
X1519286Y-602143D01*
X1538333Y-611667D01*
X1547857Y-630714D01*
X1547857Y-735476D01*
X1938333Y-525952D02*
X1766905Y-783095D01*
X2195476Y-535476D02*
X2214524Y-535476D01*
X2233571Y-545000D01*
X2243095Y-554524D01*
X2252619Y-573571D01*
X2262143Y-611667D01*
X2262143Y-659286D01*
X2252619Y-697381D01*
X2243095Y-716428D01*
X2233571Y-725952D01*
X2214524Y-735476D01*
X2195476Y-735476D01*
X2176429Y-725952D01*
X2166905Y-716428D01*
X2157381Y-697381D01*
X2147857Y-659286D01*
X2147857Y-611667D01*
X2157381Y-573571D01*
X2166905Y-554524D01*
X2176429Y-545000D01*
X2195476Y-535476D01*
X2347857Y-716428D02*
X2357381Y-725952D01*
X2347857Y-735476D01*
X2338333Y-725952D01*
X2347857Y-716428D01*
X2347857Y-735476D01*
X2481190Y-535476D02*
X2500238Y-535476D01*
X2519286Y-545000D01*
X2528810Y-554524D01*
X2538333Y-573571D01*
X2547857Y-611667D01*
X2547857Y-659286D01*
X2538333Y-697381D01*
X2528810Y-716428D01*
X2519286Y-725952D01*
X2500238Y-735476D01*
X2481190Y-735476D01*
X2462143Y-725952D01*
X2452619Y-716428D01*
X2443095Y-697381D01*
X2433571Y-659286D01*
X2433571Y-611667D01*
X2443095Y-573571D01*
X2452619Y-554524D01*
X2462143Y-545000D01*
X2481190Y-535476D01*
X2624048Y-554524D02*
X2633571Y-545000D01*
X2652619Y-535476D01*
X2700238Y-535476D01*
X2719286Y-545000D01*
X2728810Y-554524D01*
X2738333Y-573571D01*
X2738333Y-592619D01*
X2728810Y-621190D01*
X2614524Y-735476D01*
X2738333Y-735476D01*
X2919286Y-535476D02*
X2824048Y-535476D01*
X2814524Y-630714D01*
X2824048Y-621190D01*
X2843095Y-611667D01*
X2890714Y-611667D01*
X2909762Y-621190D01*
X2919286Y-630714D01*
X2928809Y-649762D01*
X2928809Y-697381D01*
X2919286Y-716428D01*
X2909762Y-725952D01*
X2890714Y-735476D01*
X2843095Y-735476D01*
X2824048Y-725952D01*
X2814524Y-716428D01*
X3100238Y-535476D02*
X3062143Y-535476D01*
X3043095Y-545000D01*
X3033571Y-554524D01*
X3014524Y-583095D01*
X3005000Y-621190D01*
X3005000Y-697381D01*
X3014524Y-716428D01*
X3024048Y-725952D01*
X3043095Y-735476D01*
X3081190Y-735476D01*
X3100238Y-725952D01*
X3109762Y-716428D01*
X3119286Y-697381D01*
X3119286Y-649762D01*
X3109762Y-630714D01*
X3100238Y-621190D01*
X3081190Y-611667D01*
X3043095Y-611667D01*
X3024048Y-621190D01*
X3014524Y-630714D01*
X3005000Y-649762D01*
X3195476Y-535476D02*
X3195476Y-573571D01*
X3271667Y-535476D02*
X3271667Y-573571D01*
X3566905Y-811667D02*
X3557381Y-802143D01*
X3538333Y-773571D01*
X3528809Y-754524D01*
X3519286Y-725952D01*
X3509762Y-678333D01*
X3509762Y-640238D01*
X3519286Y-592619D01*
X3528809Y-564048D01*
X3538333Y-545000D01*
X3557381Y-516428D01*
X3566905Y-506905D01*
X3633571Y-554524D02*
X3643095Y-545000D01*
X3662143Y-535476D01*
X3709762Y-535476D01*
X3728809Y-545000D01*
X3738333Y-554524D01*
X3747857Y-573571D01*
X3747857Y-592619D01*
X3738333Y-621190D01*
X3624048Y-735476D01*
X3747857Y-735476D01*
X3985952Y-735476D02*
X3985952Y-535476D01*
X4071667Y-735476D02*
X4071667Y-630714D01*
X4062143Y-611667D01*
X4043095Y-602143D01*
X4014524Y-602143D01*
X3995476Y-611667D01*
X3985952Y-621190D01*
X4195476Y-735476D02*
X4176428Y-725952D01*
X4166905Y-716428D01*
X4157381Y-697381D01*
X4157381Y-640238D01*
X4166905Y-621190D01*
X4176428Y-611667D01*
X4195476Y-602143D01*
X4224048Y-602143D01*
X4243095Y-611667D01*
X4252619Y-621190D01*
X4262143Y-640238D01*
X4262143Y-697381D01*
X4252619Y-716428D01*
X4243095Y-725952D01*
X4224048Y-735476D01*
X4195476Y-735476D01*
X4376429Y-735476D02*
X4357381Y-725952D01*
X4347857Y-706905D01*
X4347857Y-535476D01*
X4528810Y-725952D02*
X4509762Y-735476D01*
X4471667Y-735476D01*
X4452619Y-725952D01*
X4443095Y-706905D01*
X4443095Y-630714D01*
X4452619Y-611667D01*
X4471667Y-602143D01*
X4509762Y-602143D01*
X4528810Y-611667D01*
X4538333Y-630714D01*
X4538333Y-649762D01*
X4443095Y-668810D01*
X4614524Y-725952D02*
X4633571Y-735476D01*
X4671667Y-735476D01*
X4690714Y-725952D01*
X4700238Y-706905D01*
X4700238Y-697381D01*
X4690714Y-678333D01*
X4671667Y-668810D01*
X4643095Y-668810D01*
X4624048Y-659286D01*
X4614524Y-640238D01*
X4614524Y-630714D01*
X4624048Y-611667D01*
X4643095Y-602143D01*
X4671667Y-602143D01*
X4690714Y-611667D01*
X4766905Y-811667D02*
X4776429Y-802143D01*
X4795476Y-773571D01*
X4805000Y-754524D01*
X4814524Y-725952D01*
X4824048Y-678333D01*
X4824048Y-640238D01*
X4814524Y-592619D01*
X4805000Y-564048D01*
X4795476Y-545000D01*
X4776429Y-516428D01*
X4766905Y-506905D01*
X5128810Y-811667D02*
X5119286Y-802143D01*
X5100238Y-773571D01*
X5090714Y-754524D01*
X5081190Y-725952D01*
X5071667Y-678333D01*
X5071667Y-640238D01*
X5081190Y-592619D01*
X5090714Y-564048D01*
X5100238Y-545000D01*
X5119286Y-516428D01*
X5128810Y-506905D01*
X5205000Y-602143D02*
X5205000Y-735476D01*
X5205000Y-621190D02*
X5214524Y-611667D01*
X5233571Y-602143D01*
X5262143Y-602143D01*
X5281190Y-611667D01*
X5290714Y-630714D01*
X5290714Y-735476D01*
X5414524Y-735476D02*
X5395476Y-725952D01*
X5385952Y-716428D01*
X5376429Y-697381D01*
X5376429Y-640238D01*
X5385952Y-621190D01*
X5395476Y-611667D01*
X5414524Y-602143D01*
X5443095Y-602143D01*
X5462143Y-611667D01*
X5471667Y-621190D01*
X5481190Y-640238D01*
X5481190Y-697381D01*
X5471667Y-716428D01*
X5462143Y-725952D01*
X5443095Y-735476D01*
X5414524Y-735476D01*
X5538333Y-602143D02*
X5614524Y-602143D01*
X5566905Y-535476D02*
X5566905Y-706905D01*
X5576429Y-725952D01*
X5595476Y-735476D01*
X5614524Y-735476D01*
X5833571Y-602143D02*
X5833571Y-802143D01*
X5833571Y-611667D02*
X5852619Y-602143D01*
X5890714Y-602143D01*
X5909762Y-611667D01*
X5919286Y-621190D01*
X5928809Y-640238D01*
X5928809Y-697381D01*
X5919286Y-716428D01*
X5909762Y-725952D01*
X5890714Y-735476D01*
X5852619Y-735476D01*
X5833571Y-725952D01*
X6043095Y-735476D02*
X6024048Y-725952D01*
X6014524Y-706905D01*
X6014524Y-535476D01*
X6205000Y-735476D02*
X6205000Y-630714D01*
X6195476Y-611667D01*
X6176428Y-602143D01*
X6138333Y-602143D01*
X6119286Y-611667D01*
X6205000Y-725952D02*
X6185952Y-735476D01*
X6138333Y-735476D01*
X6119286Y-725952D01*
X6109762Y-706905D01*
X6109762Y-687857D01*
X6119286Y-668810D01*
X6138333Y-659286D01*
X6185952Y-659286D01*
X6205000Y-649762D01*
X6271667Y-602143D02*
X6347857Y-602143D01*
X6300238Y-535476D02*
X6300238Y-706905D01*
X6309762Y-725952D01*
X6328809Y-735476D01*
X6347857Y-735476D01*
X6490714Y-725952D02*
X6471667Y-735476D01*
X6433571Y-735476D01*
X6414524Y-725952D01*
X6405000Y-706905D01*
X6405000Y-630714D01*
X6414524Y-611667D01*
X6433571Y-602143D01*
X6471667Y-602143D01*
X6490714Y-611667D01*
X6500238Y-630714D01*
X6500238Y-649762D01*
X6405000Y-668810D01*
X6671667Y-735476D02*
X6671667Y-535476D01*
X6671667Y-725952D02*
X6652619Y-735476D01*
X6614524Y-735476D01*
X6595476Y-725952D01*
X6585952Y-716428D01*
X6576428Y-697381D01*
X6576428Y-640238D01*
X6585952Y-621190D01*
X6595476Y-611667D01*
X6614524Y-602143D01*
X6652619Y-602143D01*
X6671667Y-611667D01*
X6747857Y-811667D02*
X6757381Y-802143D01*
X6776428Y-773571D01*
X6785952Y-754524D01*
X6795476Y-725952D01*
X6805000Y-678333D01*
X6805000Y-640238D01*
X6795476Y-592619D01*
X6785952Y-564048D01*
X6776428Y-545000D01*
X6757381Y-516428D01*
X6747857Y-506905D01*
X-5000Y-909000D02*
G75*
G03*
X-5000Y-909000I-100000J0D01*
G01*
X243095Y-818524D02*
X252619Y-809000D01*
X271667Y-799476D01*
X319286Y-799476D01*
X338333Y-809000D01*
X347857Y-818524D01*
X357381Y-837571D01*
X357381Y-856619D01*
X347857Y-885190D01*
X233571Y-999476D01*
X357381Y-999476D01*
X443095Y-980428D02*
X452619Y-989952D01*
X443095Y-999476D01*
X433571Y-989952D01*
X443095Y-980428D01*
X443095Y-999476D01*
X519286Y-799476D02*
X652619Y-799476D01*
X566905Y-999476D01*
X766905Y-799476D02*
X785952Y-799476D01*
X805000Y-809000D01*
X814524Y-818524D01*
X824048Y-837571D01*
X833571Y-875667D01*
X833571Y-923286D01*
X824048Y-961381D01*
X814524Y-980428D01*
X805000Y-989952D01*
X785952Y-999476D01*
X766905Y-999476D01*
X747857Y-989952D01*
X738333Y-980428D01*
X728809Y-961381D01*
X719286Y-923286D01*
X719286Y-875667D01*
X728809Y-837571D01*
X738333Y-818524D01*
X747857Y-809000D01*
X766905Y-799476D01*
X957381Y-799476D02*
X976428Y-799476D01*
X995476Y-809000D01*
X1005000Y-818524D01*
X1014524Y-837571D01*
X1024048Y-875667D01*
X1024048Y-923286D01*
X1014524Y-961381D01*
X1005000Y-980428D01*
X995476Y-989952D01*
X976428Y-999476D01*
X957381Y-999476D01*
X938333Y-989952D01*
X928809Y-980428D01*
X919286Y-961381D01*
X909762Y-923286D01*
X909762Y-875667D01*
X919286Y-837571D01*
X928809Y-818524D01*
X938333Y-809000D01*
X957381Y-799476D01*
X1109762Y-999476D02*
X1109762Y-866143D01*
X1109762Y-885190D02*
X1119286Y-875667D01*
X1138333Y-866143D01*
X1166905Y-866143D01*
X1185952Y-875667D01*
X1195476Y-894714D01*
X1195476Y-999476D01*
X1195476Y-894714D02*
X1205000Y-875667D01*
X1224048Y-866143D01*
X1252619Y-866143D01*
X1271667Y-875667D01*
X1281190Y-894714D01*
X1281190Y-999476D01*
X1376429Y-999476D02*
X1376429Y-866143D01*
X1376429Y-885190D02*
X1385952Y-875667D01*
X1405000Y-866143D01*
X1433571Y-866143D01*
X1452619Y-875667D01*
X1462143Y-894714D01*
X1462143Y-999476D01*
X1462143Y-894714D02*
X1471667Y-875667D01*
X1490714Y-866143D01*
X1519286Y-866143D01*
X1538333Y-875667D01*
X1547857Y-894714D01*
X1547857Y-999476D01*
X1938333Y-789952D02*
X1766905Y-1047095D01*
X2195476Y-799476D02*
X2214524Y-799476D01*
X2233571Y-809000D01*
X2243095Y-818524D01*
X2252619Y-837571D01*
X2262143Y-875667D01*
X2262143Y-923286D01*
X2252619Y-961381D01*
X2243095Y-980428D01*
X2233571Y-989952D01*
X2214524Y-999476D01*
X2195476Y-999476D01*
X2176429Y-989952D01*
X2166905Y-980428D01*
X2157381Y-961381D01*
X2147857Y-923286D01*
X2147857Y-875667D01*
X2157381Y-837571D01*
X2166905Y-818524D01*
X2176429Y-809000D01*
X2195476Y-799476D01*
X2347857Y-980428D02*
X2357381Y-989952D01*
X2347857Y-999476D01*
X2338333Y-989952D01*
X2347857Y-980428D01*
X2347857Y-999476D01*
X2547857Y-999476D02*
X2433571Y-999476D01*
X2490714Y-999476D02*
X2490714Y-799476D01*
X2471667Y-828048D01*
X2452619Y-847095D01*
X2433571Y-856619D01*
X2671667Y-799476D02*
X2690714Y-799476D01*
X2709762Y-809000D01*
X2719286Y-818524D01*
X2728810Y-837571D01*
X2738333Y-875667D01*
X2738333Y-923286D01*
X2728810Y-961381D01*
X2719286Y-980428D01*
X2709762Y-989952D01*
X2690714Y-999476D01*
X2671667Y-999476D01*
X2652619Y-989952D01*
X2643095Y-980428D01*
X2633571Y-961381D01*
X2624048Y-923286D01*
X2624048Y-875667D01*
X2633571Y-837571D01*
X2643095Y-818524D01*
X2652619Y-809000D01*
X2671667Y-799476D01*
X2909762Y-799476D02*
X2871667Y-799476D01*
X2852619Y-809000D01*
X2843095Y-818524D01*
X2824048Y-847095D01*
X2814524Y-885190D01*
X2814524Y-961381D01*
X2824048Y-980428D01*
X2833571Y-989952D01*
X2852619Y-999476D01*
X2890714Y-999476D01*
X2909762Y-989952D01*
X2919286Y-980428D01*
X2928809Y-961381D01*
X2928809Y-913762D01*
X2919286Y-894714D01*
X2909762Y-885190D01*
X2890714Y-875667D01*
X2852619Y-875667D01*
X2833571Y-885190D01*
X2824048Y-894714D01*
X2814524Y-913762D01*
X2995476Y-799476D02*
X3119286Y-799476D01*
X3052619Y-875667D01*
X3081190Y-875667D01*
X3100238Y-885190D01*
X3109762Y-894714D01*
X3119286Y-913762D01*
X3119286Y-961381D01*
X3109762Y-980428D01*
X3100238Y-989952D01*
X3081190Y-999476D01*
X3024048Y-999476D01*
X3005000Y-989952D01*
X2995476Y-980428D01*
X3195476Y-799476D02*
X3195476Y-837571D01*
X3271667Y-799476D02*
X3271667Y-837571D01*
X3566905Y-1075667D02*
X3557381Y-1066143D01*
X3538333Y-1037571D01*
X3528809Y-1018524D01*
X3519286Y-989952D01*
X3509762Y-942333D01*
X3509762Y-904238D01*
X3519286Y-856619D01*
X3528809Y-828048D01*
X3538333Y-809000D01*
X3557381Y-780428D01*
X3566905Y-770905D01*
X3747857Y-999476D02*
X3633571Y-999476D01*
X3690714Y-999476D02*
X3690714Y-799476D01*
X3671667Y-828048D01*
X3652619Y-847095D01*
X3633571Y-856619D01*
X3985952Y-999476D02*
X3985952Y-799476D01*
X4071667Y-999476D02*
X4071667Y-894714D01*
X4062143Y-875667D01*
X4043095Y-866143D01*
X4014524Y-866143D01*
X3995476Y-875667D01*
X3985952Y-885190D01*
X4195476Y-999476D02*
X4176428Y-989952D01*
X4166905Y-980428D01*
X4157381Y-961381D01*
X4157381Y-904238D01*
X4166905Y-885190D01*
X4176428Y-875667D01*
X4195476Y-866143D01*
X4224048Y-866143D01*
X4243095Y-875667D01*
X4252619Y-885190D01*
X4262143Y-904238D01*
X4262143Y-961381D01*
X4252619Y-980428D01*
X4243095Y-989952D01*
X4224048Y-999476D01*
X4195476Y-999476D01*
X4376429Y-999476D02*
X4357381Y-989952D01*
X4347857Y-970905D01*
X4347857Y-799476D01*
X4528810Y-989952D02*
X4509762Y-999476D01*
X4471667Y-999476D01*
X4452619Y-989952D01*
X4443095Y-970905D01*
X4443095Y-894714D01*
X4452619Y-875667D01*
X4471667Y-866143D01*
X4509762Y-866143D01*
X4528810Y-875667D01*
X4538333Y-894714D01*
X4538333Y-913762D01*
X4443095Y-932809D01*
X4605000Y-1075667D02*
X4614524Y-1066143D01*
X4633571Y-1037571D01*
X4643095Y-1018524D01*
X4652619Y-989952D01*
X4662143Y-942333D01*
X4662143Y-904238D01*
X4652619Y-856619D01*
X4643095Y-828048D01*
X4633571Y-809000D01*
X4614524Y-780428D01*
X4605000Y-770905D01*
X4966905Y-1075667D02*
X4957381Y-1066143D01*
X4938333Y-1037571D01*
X4928810Y-1018524D01*
X4919286Y-989952D01*
X4909762Y-942333D01*
X4909762Y-904238D01*
X4919286Y-856619D01*
X4928810Y-828048D01*
X4938333Y-809000D01*
X4957381Y-780428D01*
X4966905Y-770905D01*
X5043095Y-866143D02*
X5043095Y-999476D01*
X5043095Y-885190D02*
X5052619Y-875667D01*
X5071667Y-866143D01*
X5100238Y-866143D01*
X5119286Y-875667D01*
X5128810Y-894714D01*
X5128810Y-999476D01*
X5252619Y-999476D02*
X5233571Y-989952D01*
X5224048Y-980428D01*
X5214524Y-961381D01*
X5214524Y-904238D01*
X5224048Y-885190D01*
X5233571Y-875667D01*
X5252619Y-866143D01*
X5281190Y-866143D01*
X5300238Y-875667D01*
X5309762Y-885190D01*
X5319286Y-904238D01*
X5319286Y-961381D01*
X5309762Y-980428D01*
X5300238Y-989952D01*
X5281190Y-999476D01*
X5252619Y-999476D01*
X5376429Y-866143D02*
X5452619Y-866143D01*
X5405000Y-799476D02*
X5405000Y-970905D01*
X5414524Y-989952D01*
X5433571Y-999476D01*
X5452619Y-999476D01*
X5671667Y-866143D02*
X5671667Y-1066143D01*
X5671667Y-875667D02*
X5690714Y-866143D01*
X5728809Y-866143D01*
X5747857Y-875667D01*
X5757381Y-885190D01*
X5766905Y-904238D01*
X5766905Y-961381D01*
X5757381Y-980428D01*
X5747857Y-989952D01*
X5728809Y-999476D01*
X5690714Y-999476D01*
X5671667Y-989952D01*
X5881190Y-999476D02*
X5862143Y-989952D01*
X5852619Y-970905D01*
X5852619Y-799476D01*
X6043095Y-999476D02*
X6043095Y-894714D01*
X6033571Y-875667D01*
X6014524Y-866143D01*
X5976428Y-866143D01*
X5957381Y-875667D01*
X6043095Y-989952D02*
X6024048Y-999476D01*
X5976428Y-999476D01*
X5957381Y-989952D01*
X5947857Y-970905D01*
X5947857Y-951857D01*
X5957381Y-932809D01*
X5976428Y-923286D01*
X6024048Y-923286D01*
X6043095Y-913762D01*
X6109762Y-866143D02*
X6185952Y-866143D01*
X6138333Y-799476D02*
X6138333Y-970905D01*
X6147857Y-989952D01*
X6166905Y-999476D01*
X6185952Y-999476D01*
X6328809Y-989952D02*
X6309762Y-999476D01*
X6271667Y-999476D01*
X6252619Y-989952D01*
X6243095Y-970905D01*
X6243095Y-894714D01*
X6252619Y-875667D01*
X6271667Y-866143D01*
X6309762Y-866143D01*
X6328809Y-875667D01*
X6338333Y-894714D01*
X6338333Y-913762D01*
X6243095Y-932809D01*
X6509762Y-999476D02*
X6509762Y-799476D01*
X6509762Y-989952D02*
X6490714Y-999476D01*
X6452619Y-999476D01*
X6433571Y-989952D01*
X6424048Y-980428D01*
X6414524Y-961381D01*
X6414524Y-904238D01*
X6424048Y-885190D01*
X6433571Y-875667D01*
X6452619Y-866143D01*
X6490714Y-866143D01*
X6509762Y-875667D01*
X6585952Y-1075667D02*
X6595476Y-1066143D01*
X6614524Y-1037571D01*
X6624048Y-1018524D01*
X6633571Y-989952D01*
X6643095Y-942333D01*
X6643095Y-904238D01*
X6633571Y-856619D01*
X6624048Y-828048D01*
X6614524Y-809000D01*
X6595476Y-780428D01*
X6585952Y-770905D01*
X-105000Y-1129000D02*
X-105000Y-1329000D01*
X-205000Y-1229000D02*
X-5000Y-1229000D01*
X347857Y-1119476D02*
X252619Y-1119476D01*
X243095Y-1214714D01*
X252619Y-1205190D01*
X271667Y-1195667D01*
X319286Y-1195667D01*
X338333Y-1205190D01*
X347857Y-1214714D01*
X357381Y-1233762D01*
X357381Y-1281381D01*
X347857Y-1300429D01*
X338333Y-1309952D01*
X319286Y-1319476D01*
X271667Y-1319476D01*
X252619Y-1309952D01*
X243095Y-1300429D01*
X443095Y-1300429D02*
X452619Y-1309952D01*
X443095Y-1319476D01*
X433571Y-1309952D01*
X443095Y-1300429D01*
X443095Y-1319476D01*
X633571Y-1119476D02*
X538333Y-1119476D01*
X528810Y-1214714D01*
X538333Y-1205190D01*
X557381Y-1195667D01*
X605000Y-1195667D01*
X624048Y-1205190D01*
X633571Y-1214714D01*
X643095Y-1233762D01*
X643095Y-1281381D01*
X633571Y-1300429D01*
X624048Y-1309952D01*
X605000Y-1319476D01*
X557381Y-1319476D01*
X538333Y-1309952D01*
X528810Y-1300429D01*
X766905Y-1119476D02*
X785952Y-1119476D01*
X805000Y-1129000D01*
X814524Y-1138524D01*
X824048Y-1157571D01*
X833571Y-1195667D01*
X833571Y-1243286D01*
X824048Y-1281381D01*
X814524Y-1300429D01*
X805000Y-1309952D01*
X785952Y-1319476D01*
X766905Y-1319476D01*
X747857Y-1309952D01*
X738333Y-1300429D01*
X728809Y-1281381D01*
X719286Y-1243286D01*
X719286Y-1195667D01*
X728809Y-1157571D01*
X738333Y-1138524D01*
X747857Y-1129000D01*
X766905Y-1119476D01*
X957381Y-1119476D02*
X976428Y-1119476D01*
X995476Y-1129000D01*
X1005000Y-1138524D01*
X1014524Y-1157571D01*
X1024048Y-1195667D01*
X1024048Y-1243286D01*
X1014524Y-1281381D01*
X1005000Y-1300429D01*
X995476Y-1309952D01*
X976428Y-1319476D01*
X957381Y-1319476D01*
X938333Y-1309952D01*
X928809Y-1300429D01*
X919286Y-1281381D01*
X909762Y-1243286D01*
X909762Y-1195667D01*
X919286Y-1157571D01*
X928809Y-1138524D01*
X938333Y-1129000D01*
X957381Y-1119476D01*
X1109762Y-1319476D02*
X1109762Y-1186143D01*
X1109762Y-1205190D02*
X1119286Y-1195667D01*
X1138333Y-1186143D01*
X1166905Y-1186143D01*
X1185952Y-1195667D01*
X1195476Y-1214714D01*
X1195476Y-1319476D01*
X1195476Y-1214714D02*
X1205000Y-1195667D01*
X1224048Y-1186143D01*
X1252619Y-1186143D01*
X1271667Y-1195667D01*
X1281190Y-1214714D01*
X1281190Y-1319476D01*
X1376429Y-1319476D02*
X1376429Y-1186143D01*
X1376429Y-1205190D02*
X1385952Y-1195667D01*
X1405000Y-1186143D01*
X1433571Y-1186143D01*
X1452619Y-1195667D01*
X1462143Y-1214714D01*
X1462143Y-1319476D01*
X1462143Y-1214714D02*
X1471667Y-1195667D01*
X1490714Y-1186143D01*
X1519286Y-1186143D01*
X1538333Y-1195667D01*
X1547857Y-1214714D01*
X1547857Y-1319476D01*
X1938333Y-1109952D02*
X1766905Y-1367095D01*
X2195476Y-1119476D02*
X2214524Y-1119476D01*
X2233571Y-1129000D01*
X2243095Y-1138524D01*
X2252619Y-1157571D01*
X2262143Y-1195667D01*
X2262143Y-1243286D01*
X2252619Y-1281381D01*
X2243095Y-1300429D01*
X2233571Y-1309952D01*
X2214524Y-1319476D01*
X2195476Y-1319476D01*
X2176429Y-1309952D01*
X2166905Y-1300429D01*
X2157381Y-1281381D01*
X2147857Y-1243286D01*
X2147857Y-1195667D01*
X2157381Y-1157571D01*
X2166905Y-1138524D01*
X2176429Y-1129000D01*
X2195476Y-1119476D01*
X2347857Y-1300429D02*
X2357381Y-1309952D01*
X2347857Y-1319476D01*
X2338333Y-1309952D01*
X2347857Y-1300429D01*
X2347857Y-1319476D01*
X2433571Y-1138524D02*
X2443095Y-1129000D01*
X2462143Y-1119476D01*
X2509762Y-1119476D01*
X2528810Y-1129000D01*
X2538333Y-1138524D01*
X2547857Y-1157571D01*
X2547857Y-1176619D01*
X2538333Y-1205190D01*
X2424048Y-1319476D01*
X2547857Y-1319476D01*
X2738333Y-1319476D02*
X2624048Y-1319476D01*
X2681190Y-1319476D02*
X2681190Y-1119476D01*
X2662143Y-1148048D01*
X2643095Y-1167095D01*
X2624048Y-1176619D01*
X2909762Y-1119476D02*
X2871667Y-1119476D01*
X2852619Y-1129000D01*
X2843095Y-1138524D01*
X2824048Y-1167095D01*
X2814524Y-1205190D01*
X2814524Y-1281381D01*
X2824048Y-1300429D01*
X2833571Y-1309952D01*
X2852619Y-1319476D01*
X2890714Y-1319476D01*
X2909762Y-1309952D01*
X2919286Y-1300429D01*
X2928809Y-1281381D01*
X2928809Y-1233762D01*
X2919286Y-1214714D01*
X2909762Y-1205190D01*
X2890714Y-1195667D01*
X2852619Y-1195667D01*
X2833571Y-1205190D01*
X2824048Y-1214714D01*
X2814524Y-1233762D01*
X3109762Y-1119476D02*
X3014524Y-1119476D01*
X3005000Y-1214714D01*
X3014524Y-1205190D01*
X3033571Y-1195667D01*
X3081190Y-1195667D01*
X3100238Y-1205190D01*
X3109762Y-1214714D01*
X3119286Y-1233762D01*
X3119286Y-1281381D01*
X3109762Y-1300429D01*
X3100238Y-1309952D01*
X3081190Y-1319476D01*
X3033571Y-1319476D01*
X3014524Y-1309952D01*
X3005000Y-1300429D01*
X3195476Y-1119476D02*
X3195476Y-1157571D01*
X3271667Y-1119476D02*
X3271667Y-1157571D01*
X3566905Y-1395667D02*
X3557381Y-1386143D01*
X3538333Y-1357571D01*
X3528809Y-1338524D01*
X3519286Y-1309952D01*
X3509762Y-1262333D01*
X3509762Y-1224238D01*
X3519286Y-1176619D01*
X3528809Y-1148048D01*
X3538333Y-1129000D01*
X3557381Y-1100429D01*
X3566905Y-1090905D01*
X3728809Y-1186143D02*
X3728809Y-1319476D01*
X3681190Y-1109952D02*
X3633571Y-1252810D01*
X3757381Y-1252810D01*
X3985952Y-1319476D02*
X3985952Y-1119476D01*
X4071667Y-1319476D02*
X4071667Y-1214714D01*
X4062143Y-1195667D01*
X4043095Y-1186143D01*
X4014524Y-1186143D01*
X3995476Y-1195667D01*
X3985952Y-1205190D01*
X4195476Y-1319476D02*
X4176428Y-1309952D01*
X4166905Y-1300429D01*
X4157381Y-1281381D01*
X4157381Y-1224238D01*
X4166905Y-1205190D01*
X4176428Y-1195667D01*
X4195476Y-1186143D01*
X4224048Y-1186143D01*
X4243095Y-1195667D01*
X4252619Y-1205190D01*
X4262143Y-1224238D01*
X4262143Y-1281381D01*
X4252619Y-1300429D01*
X4243095Y-1309952D01*
X4224048Y-1319476D01*
X4195476Y-1319476D01*
X4376429Y-1319476D02*
X4357381Y-1309952D01*
X4347857Y-1290905D01*
X4347857Y-1119476D01*
X4528810Y-1309952D02*
X4509762Y-1319476D01*
X4471667Y-1319476D01*
X4452619Y-1309952D01*
X4443095Y-1290905D01*
X4443095Y-1214714D01*
X4452619Y-1195667D01*
X4471667Y-1186143D01*
X4509762Y-1186143D01*
X4528810Y-1195667D01*
X4538333Y-1214714D01*
X4538333Y-1233762D01*
X4443095Y-1252810D01*
X4614524Y-1309952D02*
X4633571Y-1319476D01*
X4671667Y-1319476D01*
X4690714Y-1309952D01*
X4700238Y-1290905D01*
X4700238Y-1281381D01*
X4690714Y-1262333D01*
X4671667Y-1252810D01*
X4643095Y-1252810D01*
X4624048Y-1243286D01*
X4614524Y-1224238D01*
X4614524Y-1214714D01*
X4624048Y-1195667D01*
X4643095Y-1186143D01*
X4671667Y-1186143D01*
X4690714Y-1195667D01*
X4766905Y-1395667D02*
X4776429Y-1386143D01*
X4795476Y-1357571D01*
X4805000Y-1338524D01*
X4814524Y-1309952D01*
X4824048Y-1262333D01*
X4824048Y-1224238D01*
X4814524Y-1176619D01*
X4805000Y-1148048D01*
X4795476Y-1129000D01*
X4776429Y-1100429D01*
X4766905Y-1090905D01*
X5128810Y-1395667D02*
X5119286Y-1386143D01*
X5100238Y-1357571D01*
X5090714Y-1338524D01*
X5081190Y-1309952D01*
X5071667Y-1262333D01*
X5071667Y-1224238D01*
X5081190Y-1176619D01*
X5090714Y-1148048D01*
X5100238Y-1129000D01*
X5119286Y-1100429D01*
X5128810Y-1090905D01*
X5205000Y-1186143D02*
X5205000Y-1319476D01*
X5205000Y-1205190D02*
X5214524Y-1195667D01*
X5233571Y-1186143D01*
X5262143Y-1186143D01*
X5281190Y-1195667D01*
X5290714Y-1214714D01*
X5290714Y-1319476D01*
X5414524Y-1319476D02*
X5395476Y-1309952D01*
X5385952Y-1300429D01*
X5376429Y-1281381D01*
X5376429Y-1224238D01*
X5385952Y-1205190D01*
X5395476Y-1195667D01*
X5414524Y-1186143D01*
X5443095Y-1186143D01*
X5462143Y-1195667D01*
X5471667Y-1205190D01*
X5481190Y-1224238D01*
X5481190Y-1281381D01*
X5471667Y-1300429D01*
X5462143Y-1309952D01*
X5443095Y-1319476D01*
X5414524Y-1319476D01*
X5538333Y-1186143D02*
X5614524Y-1186143D01*
X5566905Y-1119476D02*
X5566905Y-1290905D01*
X5576429Y-1309952D01*
X5595476Y-1319476D01*
X5614524Y-1319476D01*
X5833571Y-1186143D02*
X5833571Y-1386143D01*
X5833571Y-1195667D02*
X5852619Y-1186143D01*
X5890714Y-1186143D01*
X5909762Y-1195667D01*
X5919286Y-1205190D01*
X5928809Y-1224238D01*
X5928809Y-1281381D01*
X5919286Y-1300429D01*
X5909762Y-1309952D01*
X5890714Y-1319476D01*
X5852619Y-1319476D01*
X5833571Y-1309952D01*
X6043095Y-1319476D02*
X6024048Y-1309952D01*
X6014524Y-1290905D01*
X6014524Y-1119476D01*
X6205000Y-1319476D02*
X6205000Y-1214714D01*
X6195476Y-1195667D01*
X6176428Y-1186143D01*
X6138333Y-1186143D01*
X6119286Y-1195667D01*
X6205000Y-1309952D02*
X6185952Y-1319476D01*
X6138333Y-1319476D01*
X6119286Y-1309952D01*
X6109762Y-1290905D01*
X6109762Y-1271857D01*
X6119286Y-1252810D01*
X6138333Y-1243286D01*
X6185952Y-1243286D01*
X6205000Y-1233762D01*
X6271667Y-1186143D02*
X6347857Y-1186143D01*
X6300238Y-1119476D02*
X6300238Y-1290905D01*
X6309762Y-1309952D01*
X6328809Y-1319476D01*
X6347857Y-1319476D01*
X6490714Y-1309952D02*
X6471667Y-1319476D01*
X6433571Y-1319476D01*
X6414524Y-1309952D01*
X6405000Y-1290905D01*
X6405000Y-1214714D01*
X6414524Y-1195667D01*
X6433571Y-1186143D01*
X6471667Y-1186143D01*
X6490714Y-1195667D01*
X6500238Y-1214714D01*
X6500238Y-1233762D01*
X6405000Y-1252810D01*
X6671667Y-1319476D02*
X6671667Y-1119476D01*
X6671667Y-1309952D02*
X6652619Y-1319476D01*
X6614524Y-1319476D01*
X6595476Y-1309952D01*
X6585952Y-1300429D01*
X6576428Y-1281381D01*
X6576428Y-1224238D01*
X6585952Y-1205190D01*
X6595476Y-1195667D01*
X6614524Y-1186143D01*
X6652619Y-1186143D01*
X6671667Y-1195667D01*
X6747857Y-1395667D02*
X6757381Y-1386143D01*
X6776428Y-1357571D01*
X6785952Y-1338524D01*
X6795476Y-1309952D01*
X6805000Y-1262333D01*
X6805000Y-1224238D01*
X6795476Y-1176619D01*
X6785952Y-1148048D01*
X6776428Y-1129000D01*
X6757381Y-1100429D01*
X6747857Y-1090905D01*
M02*
