%TF.GenerationSoftware,KiCad,Pcbnew,6.0.11+dfsg-1~bpo11+1*%
%TF.CreationDate,2023-10-21T13:10:47+02:00*%
%TF.ProjectId,IO_16_8_1,494f5f31-365f-4385-9f31-2e6b69636164,0.1.1*%
%TF.SameCoordinates,PX47868c0PY848f8c0*%
%TF.FileFunction,Soldermask,Bot*%
%TF.FilePolarity,Negative*%
%FSLAX46Y46*%
G04 Gerber Fmt 4.6, Leading zero omitted, Abs format (unit mm)*
G04 Created by KiCad (PCBNEW 6.0.11+dfsg-1~bpo11+1) date 2023-10-21 13:10:47*
%MOMM*%
%LPD*%
G01*
G04 APERTURE LIST*
%ADD10C,0.650000*%
%ADD11O,1.000000X2.100000*%
%ADD12O,1.000000X1.600000*%
%ADD13C,5.500000*%
%ADD14C,2.400000*%
%ADD15R,4.000000X4.000000*%
%ADD16C,4.000000*%
%ADD17C,2.700000*%
%ADD18C,3.000000*%
%ADD19R,1.700000X1.700000*%
%ADD20O,1.700000X1.700000*%
%ADD21C,2.000000*%
%ADD22R,2.000000X2.000000*%
G04 APERTURE END LIST*
D10*
X58700000Y93215000D03*
X52920000Y93215000D03*
D11*
X60130000Y92715000D03*
X51490000Y92715000D03*
D12*
X51490000Y96895000D03*
X60130000Y96895000D03*
D13*
X5000000Y5036000D03*
X95000000Y5000000D03*
D14*
X9716000Y56938000D03*
X4716000Y56938000D03*
X4716000Y53438000D03*
X9716000Y53438000D03*
X9716000Y49938000D03*
X4716000Y49938000D03*
X9716000Y46438000D03*
X4716000Y46438000D03*
X4716000Y42938000D03*
X9716000Y42938000D03*
X4716000Y39438000D03*
X9716000Y39438000D03*
D13*
X95000000Y95000000D03*
D14*
X9756000Y31786000D03*
X4756000Y31786000D03*
X4756000Y28286000D03*
X9756000Y28286000D03*
X4756000Y24786000D03*
X9756000Y24786000D03*
X9756000Y21286000D03*
X4756000Y21286000D03*
X9756000Y17786000D03*
X4756000Y17786000D03*
X4756000Y14286000D03*
X9756000Y14286000D03*
D15*
X44634000Y20589670D03*
D16*
X44634000Y10589670D03*
D17*
X74860000Y6000000D03*
D18*
X63610000Y6000000D03*
X86110000Y6000000D03*
D14*
X90140000Y14000000D03*
X95140000Y14000000D03*
X95140000Y17500000D03*
X90140000Y17500000D03*
X90140000Y21000000D03*
X95140000Y21000000D03*
X95140000Y24500000D03*
X90140000Y24500000D03*
X90140000Y28000000D03*
X95140000Y28000000D03*
X95140000Y31500000D03*
X90140000Y31500000D03*
D19*
X48459000Y48601000D03*
D20*
X50999000Y48601000D03*
X53539000Y48601000D03*
D13*
X5000000Y95036000D03*
D14*
X33318000Y95500000D03*
X33318000Y90500000D03*
X29818000Y90500000D03*
X29818000Y95500000D03*
X26318000Y90500000D03*
X26318000Y95500000D03*
X22818000Y90500000D03*
X22818000Y95500000D03*
X19318000Y95500000D03*
X19318000Y90500000D03*
X15818000Y90500000D03*
X15818000Y95500000D03*
X95140000Y39400000D03*
X90140000Y39400000D03*
X95140000Y42900000D03*
X90140000Y42900000D03*
X90140000Y46400000D03*
X95140000Y46400000D03*
X90140000Y49900000D03*
X95140000Y49900000D03*
X95140000Y53400000D03*
X90140000Y53400000D03*
X90140000Y56900000D03*
X95140000Y56900000D03*
D21*
X48698000Y98106000D03*
D14*
X95140000Y64800000D03*
X90140000Y64800000D03*
X95140000Y68300000D03*
X90140000Y68300000D03*
X95140000Y71800000D03*
X90140000Y71800000D03*
X95140000Y75300000D03*
X90140000Y75300000D03*
X95140000Y78800000D03*
X90140000Y78800000D03*
X90140000Y82300000D03*
X95140000Y82300000D03*
D21*
X51873000Y61276000D03*
D14*
X9756000Y82140000D03*
X4756000Y82140000D03*
X9756000Y78640000D03*
X4756000Y78640000D03*
X9756000Y75140000D03*
X4756000Y75140000D03*
X4756000Y71640000D03*
X9756000Y71640000D03*
X9756000Y68140000D03*
X4756000Y68140000D03*
X9756000Y64640000D03*
X4756000Y64640000D03*
D22*
X45142000Y81646646D03*
D21*
X45142000Y86646646D03*
D14*
X84750000Y90500000D03*
X84750000Y95500000D03*
X81250000Y95500000D03*
X81250000Y90500000D03*
X77750000Y90500000D03*
X77750000Y95500000D03*
X74250000Y95500000D03*
X74250000Y90500000D03*
X70750000Y90500000D03*
X70750000Y95500000D03*
X67250000Y95500000D03*
X67250000Y90500000D03*
M02*
